<svg width="521" height="358" viewBox="0 0 521 358" fill="none" xmlns="http://www.w3.org/2000/svg">
<path d="M12.63 347V345.434L17.634 340.682C18.054 340.286 18.366 339.938 18.57 339.638C18.774 339.338 18.906 339.062 18.966 338.81C19.038 338.546 19.074 338.3 19.074 338.072C19.074 337.496 18.876 337.052 18.48 336.74C18.084 336.416 17.502 336.254 16.734 336.254C16.122 336.254 15.564 336.362 15.06 336.578C14.568 336.794 14.142 337.124 13.782 337.568L12.144 336.308C12.636 335.648 13.296 335.138 14.124 334.778C14.964 334.406 15.9 334.22 16.932 334.22C17.844 334.22 18.636 334.37 19.308 334.67C19.992 334.958 20.514 335.372 20.874 335.912C21.246 336.452 21.432 337.094 21.432 337.838C21.432 338.246 21.378 338.654 21.27 339.062C21.162 339.458 20.958 339.878 20.658 340.322C20.358 340.766 19.92 341.264 19.344 341.816L15.042 345.902L14.556 345.02H21.918V347H12.63ZM28.5246 347.18C27.5286 347.18 26.6286 346.928 25.8246 346.424C25.0326 345.92 24.4086 345.188 23.9526 344.228C23.4966 343.256 23.2686 342.08 23.2686 340.7C23.2686 339.32 23.4966 338.15 23.9526 337.19C24.4086 336.218 25.0326 335.48 25.8246 334.976C26.6286 334.472 27.5286 334.22 28.5246 334.22C29.5326 334.22 30.4326 334.472 31.2246 334.976C32.0166 335.48 32.6406 336.218 33.0966 337.19C33.5646 338.15 33.7986 339.32 33.7986 340.7C33.7986 342.08 33.5646 343.256 33.0966 344.228C32.6406 345.188 32.0166 345.92 31.2246 346.424C30.4326 346.928 29.5326 347.18 28.5246 347.18ZM28.5246 345.146C29.1126 345.146 29.6226 344.99 30.0546 344.678C30.4866 344.354 30.8226 343.862 31.0626 343.202C31.3146 342.542 31.4406 341.708 31.4406 340.7C31.4406 339.68 31.3146 338.846 31.0626 338.198C30.8226 337.538 30.4866 337.052 30.0546 336.74C29.6226 336.416 29.1126 336.254 28.5246 336.254C27.9606 336.254 27.4566 336.416 27.0126 336.74C26.5806 337.052 26.2386 337.538 25.9866 338.198C25.7466 338.846 25.6266 339.68 25.6266 340.7C25.6266 341.708 25.7466 342.542 25.9866 343.202C26.2386 343.862 26.5806 344.354 27.0126 344.678C27.4566 344.99 27.9606 345.146 28.5246 345.146ZM37.3783 347V335.3L38.4043 336.362H34.7143V334.4H39.7183V347H37.3783ZM42.0378 344.138V342.518L48.2478 334.4H50.7498L44.6298 342.518L43.4598 342.158H53.4498V344.138H42.0378ZM48.9498 347V344.138L49.0218 342.158V339.62H51.2178V347H48.9498Z" fill="black"/>
<path d="M126.63 347V345.434L131.634 340.682C132.054 340.286 132.366 339.938 132.57 339.638C132.774 339.338 132.906 339.062 132.966 338.81C133.038 338.546 133.074 338.3 133.074 338.072C133.074 337.496 132.876 337.052 132.48 336.74C132.084 336.416 131.502 336.254 130.734 336.254C130.122 336.254 129.564 336.362 129.06 336.578C128.568 336.794 128.142 337.124 127.782 337.568L126.144 336.308C126.636 335.648 127.296 335.138 128.124 334.778C128.964 334.406 129.9 334.22 130.932 334.22C131.844 334.22 132.636 334.37 133.308 334.67C133.992 334.958 134.514 335.372 134.874 335.912C135.246 336.452 135.432 337.094 135.432 337.838C135.432 338.246 135.378 338.654 135.27 339.062C135.162 339.458 134.958 339.878 134.658 340.322C134.358 340.766 133.92 341.264 133.344 341.816L129.042 345.902L128.556 345.02H135.918V347H126.63ZM142.525 347.18C141.529 347.18 140.629 346.928 139.825 346.424C139.033 345.92 138.409 345.188 137.953 344.228C137.497 343.256 137.269 342.08 137.269 340.7C137.269 339.32 137.497 338.15 137.953 337.19C138.409 336.218 139.033 335.48 139.825 334.976C140.629 334.472 141.529 334.22 142.525 334.22C143.533 334.22 144.433 334.472 145.225 334.976C146.017 335.48 146.641 336.218 147.097 337.19C147.565 338.15 147.799 339.32 147.799 340.7C147.799 342.08 147.565 343.256 147.097 344.228C146.641 345.188 146.017 345.92 145.225 346.424C144.433 346.928 143.533 347.18 142.525 347.18ZM142.525 345.146C143.113 345.146 143.623 344.99 144.055 344.678C144.487 344.354 144.823 343.862 145.063 343.202C145.315 342.542 145.441 341.708 145.441 340.7C145.441 339.68 145.315 338.846 145.063 338.198C144.823 337.538 144.487 337.052 144.055 336.74C143.623 336.416 143.113 336.254 142.525 336.254C141.961 336.254 141.457 336.416 141.013 336.74C140.581 337.052 140.239 337.538 139.987 338.198C139.747 338.846 139.627 339.68 139.627 340.7C139.627 341.708 139.747 342.542 139.987 343.202C140.239 343.862 140.581 344.354 141.013 344.678C141.457 344.99 141.961 345.146 142.525 345.146ZM151.378 347V335.3L152.404 336.362H148.714V334.4H153.718V347H151.378ZM161.672 347.18C160.532 347.18 159.554 346.94 158.738 346.46C157.922 345.968 157.298 345.26 156.866 344.336C156.434 343.412 156.218 342.272 156.218 340.916C156.218 339.476 156.476 338.258 156.992 337.262C157.52 336.266 158.246 335.51 159.17 334.994C160.106 334.478 161.18 334.22 162.392 334.22C163.028 334.22 163.634 334.286 164.21 334.418C164.798 334.55 165.296 334.754 165.704 335.03L164.84 336.794C164.492 336.566 164.114 336.41 163.706 336.326C163.31 336.23 162.89 336.182 162.446 336.182C161.258 336.182 160.316 336.548 159.62 337.28C158.924 338.012 158.576 339.092 158.576 340.52C158.576 340.748 158.582 341.018 158.594 341.33C158.606 341.63 158.648 341.936 158.72 342.248L158 341.456C158.216 340.964 158.51 340.556 158.882 340.232C159.266 339.896 159.716 339.644 160.232 339.476C160.76 339.308 161.33 339.224 161.942 339.224C162.77 339.224 163.508 339.386 164.156 339.71C164.804 340.022 165.32 340.472 165.704 341.06C166.088 341.636 166.28 342.314 166.28 343.094C166.28 343.922 166.076 344.642 165.668 345.254C165.26 345.866 164.708 346.34 164.012 346.676C163.316 347.012 162.536 347.18 161.672 347.18ZM161.546 345.344C162.026 345.344 162.452 345.26 162.824 345.092C163.196 344.912 163.484 344.66 163.688 344.336C163.904 344.012 164.012 343.634 164.012 343.202C164.012 342.542 163.784 342.02 163.328 341.636C162.872 341.252 162.26 341.06 161.492 341.06C160.988 341.06 160.544 341.156 160.16 341.348C159.788 341.528 159.488 341.78 159.26 342.104C159.044 342.428 158.936 342.8 158.936 343.22C158.936 343.604 159.038 343.958 159.242 344.282C159.446 344.606 159.74 344.864 160.124 345.056C160.52 345.248 160.994 345.344 161.546 345.344Z" fill="black"/>
<path d="M240.63 347V345.434L245.634 340.682C246.054 340.286 246.366 339.938 246.57 339.638C246.774 339.338 246.906 339.062 246.966 338.81C247.038 338.546 247.074 338.3 247.074 338.072C247.074 337.496 246.876 337.052 246.48 336.74C246.084 336.416 245.502 336.254 244.734 336.254C244.122 336.254 243.564 336.362 243.06 336.578C242.568 336.794 242.142 337.124 241.782 337.568L240.144 336.308C240.636 335.648 241.296 335.138 242.124 334.778C242.964 334.406 243.9 334.22 244.932 334.22C245.844 334.22 246.636 334.37 247.308 334.67C247.992 334.958 248.514 335.372 248.874 335.912C249.246 336.452 249.432 337.094 249.432 337.838C249.432 338.246 249.378 338.654 249.27 339.062C249.162 339.458 248.958 339.878 248.658 340.322C248.358 340.766 247.92 341.264 247.344 341.816L243.042 345.902L242.556 345.02H249.918V347H240.63ZM256.525 347.18C255.529 347.18 254.629 346.928 253.825 346.424C253.033 345.92 252.409 345.188 251.953 344.228C251.497 343.256 251.269 342.08 251.269 340.7C251.269 339.32 251.497 338.15 251.953 337.19C252.409 336.218 253.033 335.48 253.825 334.976C254.629 334.472 255.529 334.22 256.525 334.22C257.533 334.22 258.433 334.472 259.225 334.976C260.017 335.48 260.641 336.218 261.097 337.19C261.565 338.15 261.799 339.32 261.799 340.7C261.799 342.08 261.565 343.256 261.097 344.228C260.641 345.188 260.017 345.92 259.225 346.424C258.433 346.928 257.533 347.18 256.525 347.18ZM256.525 345.146C257.113 345.146 257.623 344.99 258.055 344.678C258.487 344.354 258.823 343.862 259.063 343.202C259.315 342.542 259.441 341.708 259.441 340.7C259.441 339.68 259.315 338.846 259.063 338.198C258.823 337.538 258.487 337.052 258.055 336.74C257.623 336.416 257.113 336.254 256.525 336.254C255.961 336.254 255.457 336.416 255.013 336.74C254.581 337.052 254.239 337.538 253.987 338.198C253.747 338.846 253.627 339.68 253.627 340.7C253.627 341.708 253.747 342.542 253.987 343.202C254.239 343.862 254.581 344.354 255.013 344.678C255.457 344.99 255.961 345.146 256.525 345.146ZM265.378 347V335.3L266.404 336.362H262.714V334.4H267.718V347H265.378ZM275.276 347.18C274.232 347.18 273.326 347.024 272.558 346.712C271.79 346.4 271.196 345.962 270.776 345.398C270.356 344.822 270.146 344.15 270.146 343.382C270.146 342.614 270.35 341.966 270.758 341.438C271.166 340.91 271.754 340.508 272.522 340.232C273.29 339.956 274.208 339.818 275.276 339.818C276.344 339.818 277.262 339.956 278.03 340.232C278.81 340.508 279.404 340.916 279.812 341.456C280.232 341.984 280.442 342.626 280.442 343.382C280.442 344.15 280.226 344.822 279.794 345.398C279.374 345.962 278.774 346.4 277.994 346.712C277.226 347.024 276.32 347.18 275.276 347.18ZM275.276 345.344C276.14 345.344 276.824 345.164 277.328 344.804C277.832 344.444 278.084 343.946 278.084 343.31C278.084 342.686 277.832 342.194 277.328 341.834C276.824 341.474 276.14 341.294 275.276 341.294C274.412 341.294 273.734 341.474 273.242 341.834C272.75 342.194 272.504 342.686 272.504 343.31C272.504 343.946 272.75 344.444 273.242 344.804C273.734 345.164 274.412 345.344 275.276 345.344ZM275.276 341.042C274.304 341.042 273.47 340.916 272.774 340.664C272.078 340.4 271.538 340.022 271.154 339.53C270.782 339.026 270.596 338.426 270.596 337.73C270.596 337.01 270.788 336.392 271.172 335.876C271.568 335.348 272.12 334.94 272.828 334.652C273.536 334.364 274.352 334.22 275.276 334.22C276.212 334.22 277.034 334.364 277.742 334.652C278.45 334.94 279.002 335.348 279.398 335.876C279.794 336.392 279.992 337.01 279.992 337.73C279.992 338.426 279.8 339.026 279.416 339.53C279.044 340.022 278.504 340.4 277.796 340.664C277.088 340.916 276.248 341.042 275.276 341.042ZM275.276 339.602C276.02 339.602 276.608 339.446 277.04 339.134C277.472 338.81 277.688 338.378 277.688 337.838C277.688 337.274 277.466 336.836 277.022 336.524C276.578 336.212 275.996 336.056 275.276 336.056C274.556 336.056 273.98 336.212 273.548 336.524C273.116 336.836 272.9 337.274 272.9 337.838C272.9 338.378 273.11 338.81 273.53 339.134C273.962 339.446 274.544 339.602 275.276 339.602Z" fill="black"/>
<path d="M354.63 347V345.434L359.634 340.682C360.054 340.286 360.366 339.938 360.57 339.638C360.774 339.338 360.906 339.062 360.966 338.81C361.038 338.546 361.074 338.3 361.074 338.072C361.074 337.496 360.876 337.052 360.48 336.74C360.084 336.416 359.502 336.254 358.734 336.254C358.122 336.254 357.564 336.362 357.06 336.578C356.568 336.794 356.142 337.124 355.782 337.568L354.144 336.308C354.636 335.648 355.296 335.138 356.124 334.778C356.964 334.406 357.9 334.22 358.932 334.22C359.844 334.22 360.636 334.37 361.308 334.67C361.992 334.958 362.514 335.372 362.874 335.912C363.246 336.452 363.432 337.094 363.432 337.838C363.432 338.246 363.378 338.654 363.27 339.062C363.162 339.458 362.958 339.878 362.658 340.322C362.358 340.766 361.92 341.264 361.344 341.816L357.042 345.902L356.556 345.02H363.918V347H354.63ZM370.525 347.18C369.529 347.18 368.629 346.928 367.825 346.424C367.033 345.92 366.409 345.188 365.953 344.228C365.497 343.256 365.269 342.08 365.269 340.7C365.269 339.32 365.497 338.15 365.953 337.19C366.409 336.218 367.033 335.48 367.825 334.976C368.629 334.472 369.529 334.22 370.525 334.22C371.533 334.22 372.433 334.472 373.225 334.976C374.017 335.48 374.641 336.218 375.097 337.19C375.565 338.15 375.799 339.32 375.799 340.7C375.799 342.08 375.565 343.256 375.097 344.228C374.641 345.188 374.017 345.92 373.225 346.424C372.433 346.928 371.533 347.18 370.525 347.18ZM370.525 345.146C371.113 345.146 371.623 344.99 372.055 344.678C372.487 344.354 372.823 343.862 373.063 343.202C373.315 342.542 373.441 341.708 373.441 340.7C373.441 339.68 373.315 338.846 373.063 338.198C372.823 337.538 372.487 337.052 372.055 336.74C371.623 336.416 371.113 336.254 370.525 336.254C369.961 336.254 369.457 336.416 369.013 336.74C368.581 337.052 368.239 337.538 367.987 338.198C367.747 338.846 367.627 339.68 367.627 340.7C367.627 341.708 367.747 342.542 367.987 343.202C368.239 343.862 368.581 344.354 369.013 344.678C369.457 344.99 369.961 345.146 370.525 345.146ZM377.2 347V345.434L382.204 340.682C382.624 340.286 382.936 339.938 383.14 339.638C383.344 339.338 383.476 339.062 383.536 338.81C383.608 338.546 383.644 338.3 383.644 338.072C383.644 337.496 383.446 337.052 383.05 336.74C382.654 336.416 382.072 336.254 381.304 336.254C380.692 336.254 380.134 336.362 379.63 336.578C379.138 336.794 378.712 337.124 378.352 337.568L376.714 336.308C377.206 335.648 377.866 335.138 378.694 334.778C379.534 334.406 380.47 334.22 381.502 334.22C382.414 334.22 383.206 334.37 383.878 334.67C384.562 334.958 385.084 335.372 385.444 335.912C385.816 336.452 386.002 337.094 386.002 337.838C386.002 338.246 385.948 338.654 385.84 339.062C385.732 339.458 385.528 339.878 385.228 340.322C384.928 340.766 384.49 341.264 383.914 341.816L379.612 345.902L379.126 345.02H386.488V347H377.2ZM389.855 347V335.3L390.881 336.362H387.191V334.4H392.195V347H389.855Z" fill="black"/>
<path d="M468.63 347V345.434L473.634 340.682C474.054 340.286 474.366 339.938 474.57 339.638C474.774 339.338 474.906 339.062 474.966 338.81C475.038 338.546 475.074 338.3 475.074 338.072C475.074 337.496 474.876 337.052 474.48 336.74C474.084 336.416 473.502 336.254 472.734 336.254C472.122 336.254 471.564 336.362 471.06 336.578C470.568 336.794 470.142 337.124 469.782 337.568L468.144 336.308C468.636 335.648 469.296 335.138 470.124 334.778C470.964 334.406 471.9 334.22 472.932 334.22C473.844 334.22 474.636 334.37 475.308 334.67C475.992 334.958 476.514 335.372 476.874 335.912C477.246 336.452 477.432 337.094 477.432 337.838C477.432 338.246 477.378 338.654 477.27 339.062C477.162 339.458 476.958 339.878 476.658 340.322C476.358 340.766 475.92 341.264 475.344 341.816L471.042 345.902L470.556 345.02H477.918V347H468.63ZM484.525 347.18C483.529 347.18 482.629 346.928 481.825 346.424C481.033 345.92 480.409 345.188 479.953 344.228C479.497 343.256 479.269 342.08 479.269 340.7C479.269 339.32 479.497 338.15 479.953 337.19C480.409 336.218 481.033 335.48 481.825 334.976C482.629 334.472 483.529 334.22 484.525 334.22C485.533 334.22 486.433 334.472 487.225 334.976C488.017 335.48 488.641 336.218 489.097 337.19C489.565 338.15 489.799 339.32 489.799 340.7C489.799 342.08 489.565 343.256 489.097 344.228C488.641 345.188 488.017 345.92 487.225 346.424C486.433 346.928 485.533 347.18 484.525 347.18ZM484.525 345.146C485.113 345.146 485.623 344.99 486.055 344.678C486.487 344.354 486.823 343.862 487.063 343.202C487.315 342.542 487.441 341.708 487.441 340.7C487.441 339.68 487.315 338.846 487.063 338.198C486.823 337.538 486.487 337.052 486.055 336.74C485.623 336.416 485.113 336.254 484.525 336.254C483.961 336.254 483.457 336.416 483.013 336.74C482.581 337.052 482.239 337.538 481.987 338.198C481.747 338.846 481.627 339.68 481.627 340.7C481.627 341.708 481.747 342.542 481.987 343.202C482.239 343.862 482.581 344.354 483.013 344.678C483.457 344.99 483.961 345.146 484.525 345.146ZM491.2 347V345.434L496.204 340.682C496.624 340.286 496.936 339.938 497.14 339.638C497.344 339.338 497.476 339.062 497.536 338.81C497.608 338.546 497.644 338.3 497.644 338.072C497.644 337.496 497.446 337.052 497.05 336.74C496.654 336.416 496.072 336.254 495.304 336.254C494.692 336.254 494.134 336.362 493.63 336.578C493.138 336.794 492.712 337.124 492.352 337.568L490.714 336.308C491.206 335.648 491.866 335.138 492.694 334.778C493.534 334.406 494.47 334.22 495.502 334.22C496.414 334.22 497.206 334.37 497.878 334.67C498.562 334.958 499.084 335.372 499.444 335.912C499.816 336.452 500.002 337.094 500.002 337.838C500.002 338.246 499.948 338.654 499.84 339.062C499.732 339.458 499.528 339.878 499.228 340.322C498.928 340.766 498.49 341.264 497.914 341.816L493.612 345.902L493.126 345.02H500.488V347H491.2ZM505.799 347.18C504.911 347.18 504.041 347.054 503.189 346.802C502.349 346.538 501.641 346.178 501.065 345.722L502.073 343.904C502.529 344.276 503.081 344.576 503.729 344.804C504.377 345.032 505.055 345.146 505.763 345.146C506.603 345.146 507.257 344.978 507.725 344.642C508.193 344.294 508.427 343.826 508.427 343.238C508.427 342.662 508.211 342.206 507.779 341.87C507.347 341.534 506.651 341.366 505.691 341.366H504.539V339.764L508.139 335.48L508.445 336.362H501.677V334.4H510.263V335.966L506.663 340.25L505.439 339.53H506.141C507.689 339.53 508.847 339.878 509.615 340.574C510.395 341.258 510.785 342.14 510.785 343.22C510.785 343.928 510.605 344.582 510.245 345.182C509.885 345.782 509.333 346.268 508.589 346.64C507.857 347 506.927 347.18 505.799 347.18Z" fill="black"/>
<rect width="65" height="323" fill="#D9D9D9" fill-opacity="0.5"/>
<rect x="114" width="65" height="323" fill="#D9D9D9" fill-opacity="0.5"/>
<rect x="228" width="65" height="323" fill="#D9D9D9" fill-opacity="0.5"/>
<rect x="342" width="65" height="323" fill="#D9D9D9" fill-opacity="0.5"/>
<rect x="456" width="65" height="323" fill="#D9D9D9" fill-opacity="0.5"/>
<rect y="231" width="65" height="92" fill="#D9D9D9"/>
<rect x="114" y="183" width="65" height="140" fill="#D9D9D9"/>
<rect x="228" y="116" width="65" height="207" fill="#D9D9D9"/>
<rect x="342" y="54" width="65" height="269" fill="#D9D9D9"/>
<rect x="456" y="33" width="65" height="290" fill="#D9D9D9"/>
</svg>
